<svg width="34" height="34" viewBox="0 0 34 34" fill="none" xmlns="http://www.w3.org/2000/svg">
<rect width="34" height="34" rx="8" fill="url(#paint0_linear_419_1281)"/>
<path d="M16.7773 16.5742H13.1543L13.1348 14.7871H16.2988C16.8327 14.7871 17.2852 14.709 17.6562 14.5527C18.0339 14.39 18.3203 14.1589 18.5156 13.8594C18.7109 13.5534 18.8086 13.1855 18.8086 12.7559C18.8086 12.2806 18.7174 11.8932 18.5352 11.5938C18.3529 11.2943 18.0729 11.0762 17.6953 10.9395C17.3242 10.8027 16.849 10.7344 16.2695 10.7344H13.8965V23H11.4453V8.78125H16.2695C17.0508 8.78125 17.7474 8.85612 18.3594 9.00586C18.9779 9.1556 19.502 9.38997 19.9316 9.70898C20.3678 10.0215 20.6966 10.4186 20.918 10.9004C21.1458 11.3822 21.2598 11.9551 21.2598 12.6191C21.2598 13.2051 21.1198 13.7422 20.8398 14.2305C20.5599 14.7122 20.1465 15.1061 19.5996 15.4121C19.0527 15.7181 18.3724 15.9004 17.5586 15.959L16.7773 16.5742ZM16.6699 23H12.3828L13.4863 21.0566H16.6699C17.2233 21.0566 17.6855 20.9655 18.0566 20.7832C18.4277 20.5944 18.7044 20.3372 18.8867 20.0117C19.0755 19.6797 19.1699 19.2923 19.1699 18.8496C19.1699 18.3874 19.0885 17.987 18.9258 17.6484C18.763 17.3034 18.5059 17.0397 18.1543 16.8574C17.8027 16.6686 17.3438 16.5742 16.7773 16.5742H14.0234L14.043 14.7871H17.627L18.1836 15.4609C18.9648 15.487 19.6061 15.6595 20.1074 15.9785C20.6152 16.2975 20.9928 16.7109 21.2402 17.2188C21.4876 17.7266 21.6113 18.2734 21.6113 18.8594C21.6113 19.7643 21.4128 20.5228 21.0156 21.1348C20.625 21.7467 20.0618 22.2122 19.3262 22.5312C18.5905 22.8438 17.7051 23 16.6699 23Z" fill="white"/>
<defs>
<linearGradient id="paint0_linear_419_1281" x1="2.5332e-07" y1="8.5" x2="17" y2="42.5" gradientUnits="userSpaceOnUse">
<stop stop-color="#FFAB2B"/>
<stop offset="1" stop-color="#EE7B12"/>
</linearGradient>
</defs>
</svg>
